<?xml version="1.0" encoding="UTF-8"?>
<svg width="325px" height="154px" viewBox="0 0 325 154" version="1.1" xmlns="http://www.w3.org/2000/svg" xmlns:xlink="http://www.w3.org/1999/xlink">
    <!-- Generator: Sketch 61 (89581) - https://sketch.com -->
    <title>Group</title>
    <desc>Created with Sketch.</desc>
    <defs>
        <linearGradient x1="5.25838778%" y1="38.9649585%" x2="98.4210883%" y2="67.8851433%" id="linearGradient-1">
            <stop stop-color="#005288" offset="0%"></stop>
            <stop stop-color="#00548A" offset="5.255067%"></stop>
            <stop stop-color="#036699" offset="47.16%"></stop>
            <stop stop-color="#3373A3" offset="80.17%"></stop>
            <stop stop-color="#3D78A7" offset="100%"></stop>
        </linearGradient>
        <linearGradient x1="14.8222133%" y1="47.549627%" x2="94.483385%" y2="59.6703726%" id="linearGradient-2">
            <stop stop-color="#FFC425" offset="0%"></stop>
            <stop stop-color="#FFD062" offset="100%"></stop>
        </linearGradient>
        <linearGradient x1="25.6236729%" y1="21.0740776%" x2="73.6136748%" y2="89.0273377%" id="linearGradient-3">
            <stop stop-color="#005288" offset="0%"></stop>
            <stop stop-color="#00568B" offset="10.55%"></stop>
            <stop stop-color="#006195" offset="28.48%"></stop>
            <stop stop-color="#3A76A6" offset="50.92%"></stop>
            <stop stop-color="#417AA9" offset="81.46%"></stop>
            <stop stop-color="#487DAB" offset="100%"></stop>
        </linearGradient>
        <linearGradient x1="42.4231739%" y1="23.7931034%" x2="59.6653642%" y2="85.3931034%" id="linearGradient-4">
            <stop stop-color="#747679" offset="0%"></stop>
            <stop stop-color="#898B8E" offset="23.93%"></stop>
            <stop stop-color="#98999C" offset="33.05%"></stop>
            <stop stop-color="#AFB0B2" offset="49.34%"></stop>
            <stop stop-color="#C1C2C3" offset="65.87%"></stop>
            <stop stop-color="#CDCECE" offset="82.64%"></stop>
            <stop stop-color="#D1D2D2" offset="100%"></stop>
        </linearGradient>
        <linearGradient x1="43.534044%" y1="20.76%" x2="58.0702412%" y2="83.4342857%" id="linearGradient-5">
            <stop stop-color="#747679" offset="0%"></stop>
            <stop stop-color="#898B8E" offset="23.93%"></stop>
            <stop stop-color="#98999C" offset="33.05%"></stop>
            <stop stop-color="#AFB0B2" offset="49.34%"></stop>
            <stop stop-color="#C1C2C3" offset="65.87%"></stop>
            <stop stop-color="#CDCECE" offset="82.64%"></stop>
            <stop stop-color="#D1D2D2" offset="100%"></stop>
        </linearGradient>
    </defs>
    <g id="Symbols" stroke="none" stroke-width="1" fill="none" fill-rule="evenodd">
        <g id="Menu">
            <g id="Rectangle" transform="translate(-77.000000, -295.000000)">
                <g id="Group" transform="translate(2.000000, 44.000000)">
                    <path d="M202.5,405 C314.337662,405 405,314.337662 405,202.5 C405,90.6623382 314.337662,0 202.5,0 C90.6623382,0 0,90.6623382 0,202.5 C0,263.224204 26.7284895,317.705634 69.0623926,354.821216 C104.69616,386.062559 151.386542,405 202.5,405 Z" id="Oval" fill="#FFFFFF"></path>
                    <g id="LOGO" transform="translate(101.000000, 277.000000)">
                        <g id="logo-custers" transform="translate(2.000000, 5.000000)">
                            <g id="Group" transform="translate(68.000000, 10.000000)" fill-rule="nonzero">
                                <g fill="#0B0A0B">
                                    <path d="M11.9509217,25.4189699 C8.10829493,25.4189699 5.14700461,24.3418949 3.1375576,22.1518424 C1.1281106,19.96179 0.105760369,16.874175 0.105760369,12.853095 C0.105760369,10.842555 0.423041475,9.08333248 1.02235023,7.50362248 C1.62165899,5.92391249 2.46774194,4.59551999 3.56059908,3.51844499 C4.61820276,2.44136999 5.92258065,1.6156125 7.40322581,1.077075 C8.88387097,0.502634999 10.50553,0.251317499 12.2329493,0.251317499 C13.2200461,0.251317499 14.1366359,0.323122499 14.9827189,0.466732499 C15.7935484,0.610342499 16.533871,0.789854998 17.1331797,1.00527 C17.7324885,1.220685 18.2612903,1.4001975 18.6843318,1.6156125 C19.1073733,1.8310275 19.3894009,1.9746375 19.5656682,2.1182475 L18.0145161,6.46244999 C17.2741935,6.06752249 16.4281106,5.74439999 15.4762673,5.45717999 C14.4891705,5.16995999 13.3963134,5.02634999 12.1624424,5.02634999 C11.3516129,5.02634999 10.5407834,5.16995999 9.76520737,5.45717999 C8.98963134,5.74439999 8.28456221,6.17522999 7.68525346,6.78557248 C7.0859447,7.39591498 6.59239631,8.18576998 6.23986175,9.19103998 C5.88732719,10.1604075 5.67580645,11.34519 5.67580645,12.7453875 C5.67580645,13.858365 5.78156682,14.8995375 6.02834101,15.868905 C6.27511521,16.8382725 6.66290323,17.66403 7.19170507,18.3461775 C7.72050691,19.028325 8.42557604,19.602765 9.30691244,19.9976925 C10.1882488,20.39262 11.2105991,20.608035 12.44447,20.608035 C13.2200461,20.608035 13.9251152,20.5721325 14.524424,20.464425 C15.1237327,20.3567175 15.687788,20.24901 16.1813364,20.1413025 C16.6748848,19.9976925 17.0979263,19.8540825 17.4504608,19.7104725 C17.8029954,19.53096 18.15553,19.38735 18.4375576,19.24374 L19.9182028,23.5879424 C19.1778802,24.0546749 18.1202765,24.4855049 16.7453917,24.8445299 C15.3352535,25.2394574 13.7488479,25.4189699 11.9509217,25.4189699 Z" id="Path"></path>
                                    <path d="M33.2792627,25.4189699 C31.6223502,25.4189699 30.1769585,25.1676524 28.978341,24.7009199 C27.7797235,24.2341874 26.7573733,23.5520399 25.9817972,22.7262824 C25.2062212,21.8646224 24.6069124,20.8593525 24.2191244,19.67457 C23.8313364,18.4897875 23.6550691,17.1972975 23.6550691,15.7971 L23.6550691,0.753952498 L29.0135945,0.753952498 L29.0135945,15.3303675 C29.0135945,16.299735 29.1193548,17.1254925 29.3308756,17.80764 C29.5423963,18.4897875 29.8596774,19.0642275 30.212212,19.4950575 C30.6,19.9258875 31.0582949,20.24901 31.5870968,20.4285225 C32.1158986,20.608035 32.7152074,20.7157425 33.3497696,20.7157425 C34.6541475,20.7157425 35.7117512,20.320815 36.5225806,19.4950575 C37.3334101,18.6693 37.7211982,17.305005 37.7211982,15.3303675 L37.7211982,0.753952498 L43.0797235,0.753952498 L43.0797235,15.7971 C43.0797235,17.2332 42.8682028,18.52569 42.4804147,19.7104725 C42.0926267,20.895255 41.493318,21.9005249 40.6824885,22.7621849 C39.871659,23.6238449 38.8845622,24.2700899 37.6506912,24.7368224 C36.4520737,25.2035549 34.9714286,25.4189699 33.2792627,25.4189699 Z" id="Path"></path>
                                    <path d="M55.3831797,20.7875475 C56.1235023,20.7875475 56.7580645,20.7157425 57.2516129,20.608035 C57.7451613,20.464425 58.1329493,20.320815 58.4502304,20.0694975 C58.7322581,19.8540825 58.9437788,19.602765 59.0847926,19.2796425 C59.190553,18.9924225 59.2610599,18.6333975 59.2610599,18.2743725 C59.2610599,17.4845175 58.9085253,16.8382725 58.1682028,16.299735 C57.4278802,15.7611975 56.1940092,15.22266 54.3960829,14.6123175 C53.6205069,14.3250975 52.8449309,14.001975 52.0693548,13.64295 C51.2937788,13.283925 50.5887097,12.8171925 49.9894009,12.278655 C49.3900922,11.7401175 48.8612903,11.05797 48.4735023,10.3040175 C48.0857143,9.51416248 47.8741935,8.58069748 47.8741935,7.46771998 C47.8741935,6.35474249 48.0857143,5.34947249 48.4735023,4.45190999 C48.8965438,3.55434749 49.4605991,2.80039499 50.2361751,2.15415 C50.9764977,1.5438075 51.8930876,1.0411725 52.9859447,0.718049998 C54.0435484,0.394927499 55.2774194,0.215415 56.6170507,0.215415 C58.2034562,0.215415 59.6135945,0.394927499 60.7769585,0.753952498 C61.9403226,1.1129775 62.8921659,1.4720025 63.6677419,1.9028325 L62.1165899,6.21113249 C61.4467742,5.85210749 60.7064516,5.56488749 59.8956221,5.27766749 C59.0847926,5.02634999 58.0976959,4.88273999 56.9695853,4.88273999 C55.7004608,4.88273999 54.783871,5.06225249 54.2198157,5.42127749 C53.6557604,5.78030249 53.3737327,6.31883999 53.3737327,7.07279248 C53.3737327,7.50362248 53.4794931,7.89854998 53.6910138,8.18576998 C53.9025346,8.47298998 54.1845622,8.76020998 54.5723502,9.01152748 C54.9601382,9.26284498 55.3831797,9.47825998 55.8767281,9.65777248 C56.3702765,9.87318748 56.8990783,10.0527 57.4983871,10.268115 C58.7322581,10.7348475 59.7898618,11.20158 60.7064516,11.63241 C61.6230415,12.0991425 62.3633641,12.6017775 62.9979263,13.21212 C63.597235,13.8224625 64.05553,14.5405125 64.3375576,15.3303675 C64.6195853,16.156125 64.7958525,17.1254925 64.7958525,18.310275 C64.7958525,20.5721325 64.0202765,22.3313549 62.4691244,23.5520399 C60.9179724,24.8086274 58.5912442,25.4189699 55.4536866,25.4189699 C54.3960829,25.4189699 53.4442396,25.3471649 52.5981567,25.2394574 C51.7520737,25.0958474 51.0117512,24.9522374 50.3419355,24.7727249 C49.7073733,24.5932124 49.143318,24.3777974 48.6497696,24.1623824 C48.1914747,23.9469674 47.8036866,23.7674549 47.4511521,23.5520399 L48.9670507,19.24374 C49.6721198,19.6386675 50.5534562,19.9976925 51.5758065,20.320815 C52.5981567,20.6439375 53.8672811,20.7875475 55.3831797,20.7875475 Z" id="Path"></path>
                                    <polygon id="Path" points="87.8163594 0.753952498 87.8163594 5.38537499 80.6599078 5.38537499 80.6599078 24.9163349 75.3013825 24.9163349 75.3013825 5.42127749 68.1449309 5.42127749 68.1449309 0.753952498"></polygon>
                                    <polygon id="Path" points="91.9057604 24.9522374 91.9057604 0.753952498 107.946083 0.753952498 107.946083 5.31356999 97.2642857 5.31356999 97.2642857 10.0527 106.747465 10.0527 106.747465 14.50461 97.2642857 14.50461 97.2642857 20.320815 108.721659 20.320815 108.721659 24.8804324 91.9057604 24.8804324"></polygon>
                                    <path d="M120.320046,0.502634999 C123.880645,0.502634999 126.595161,1.14888 128.498848,2.44136999 C130.402535,3.73385999 131.354378,5.74439999 131.354378,8.47298998 C131.354378,10.1604075 130.96659,11.560605 130.191014,12.6017775 C129.415438,13.64295 128.322581,14.50461 126.877189,15.07905 C127.370737,15.6893925 127.864286,16.37154 128.393088,17.161395 C128.921889,17.95125 129.450691,18.741105 129.94424,19.602765 C130.473041,20.464425 130.96659,21.326085 131.424885,22.2595499 C131.918433,23.1930149 132.341475,24.0905774 132.764516,24.9522374 L126.806682,24.9522374 C126.383641,24.1623824 125.925346,23.3725274 125.467051,22.5467699 C125.008756,21.7210124 124.550461,20.9311575 124.092166,20.177205 C123.633871,19.4232525 123.140323,18.6693 122.682028,17.9871525 C122.223733,17.305005 121.765438,16.6946625 121.307143,16.1202225 L118.663134,16.1202225 L118.663134,24.9522374 L113.304608,24.9522374 L113.304608,1.1129775 C114.467972,0.897562498 115.66659,0.718049998 116.900461,0.610342499 C118.204839,0.538537499 119.332949,0.502634999 120.320046,0.502634999 Z M120.637327,5.13405749 C120.249539,5.13405749 119.897005,5.13405749 119.579724,5.16995999 C119.262442,5.20586249 118.980415,5.20586249 118.698387,5.24176499 L118.698387,11.8119225 L120.214286,11.8119225 C122.223733,11.8119225 123.669124,11.560605 124.515207,11.05797 C125.396544,10.555335 125.819585,9.65777248 125.819585,8.43708748 C125.819585,7.25230498 125.396544,6.42654749 124.515207,5.92391249 C123.633871,5.38537499 122.329493,5.13405749 120.637327,5.13405749 Z" id="Shape"></path>
                                    <path d="M143.375806,20.7875475 C144.116129,20.7875475 144.750691,20.7157425 145.24424,20.608035 C145.737788,20.464425 146.125576,20.320815 146.442857,20.0694975 C146.724885,19.8540825 146.936406,19.602765 147.042166,19.2796425 C147.147926,18.9924225 147.218433,18.6333975 147.218433,18.2743725 C147.218433,17.4845175 146.865899,16.8382725 146.125576,16.299735 C145.385253,15.7611975 144.151382,15.22266 142.353456,14.6123175 C141.57788,14.3250975 140.802304,14.001975 140.026728,13.64295 C139.251152,13.283925 138.546083,12.8171925 137.946774,12.278655 C137.347465,11.7401175 136.818664,11.05797 136.430876,10.3040175 C136.043088,9.51416248 135.831567,8.58069748 135.831567,7.46771998 C135.831567,6.35474249 136.043088,5.34947249 136.430876,4.45190999 C136.853917,3.55434749 137.417972,2.80039499 138.193548,2.15415 C138.933871,1.5438075 139.850461,1.0411725 140.943318,0.718049998 C142.000922,0.394927499 143.234793,0.215415 144.574424,0.215415 C146.160829,0.215415 147.570968,0.394927499 148.734332,0.753952498 C149.897696,1.1129775 150.849539,1.4720025 151.625115,1.9028325 L150.073963,6.21113249 C149.404147,5.85210749 148.663825,5.56488749 147.852995,5.27766749 C147.042166,5.02634999 146.055069,4.88273999 144.926959,4.88273999 C143.657834,4.88273999 142.741244,5.06225249 142.177189,5.42127749 C141.613134,5.78030249 141.331106,6.31883999 141.331106,7.07279248 C141.331106,7.50362248 141.436866,7.89854998 141.648387,8.18576998 C141.859908,8.47298998 142.141935,8.76020998 142.529724,9.01152748 C142.917512,9.26284498 143.340553,9.47825998 143.834101,9.65777248 C144.32765,9.87318748 144.856452,10.0527 145.45576,10.268115 C146.689631,10.7348475 147.747235,11.20158 148.663825,11.63241 C149.580415,12.0991425 150.320737,12.6017775 150.9553,13.21212 C151.554608,13.8224625 152.012903,14.5405125 152.294931,15.3303675 C152.576959,16.156125 152.753226,17.1254925 152.753226,18.310275 C152.753226,20.5721325 151.97765,22.3313549 150.426498,23.5520399 C148.875346,24.8086274 146.548618,25.4189699 143.41106,25.4189699 C142.353456,25.4189699 141.401613,25.3471649 140.55553,25.2394574 C139.709447,25.0958474 138.969124,24.9522374 138.299309,24.7727249 C137.664747,24.5932124 137.100691,24.3777974 136.607143,24.1623824 C136.148848,23.9469674 135.76106,23.7674549 135.408525,23.5520399 L136.924424,19.24374 C137.629493,19.6386675 138.510829,19.9976925 139.53318,20.320815 C140.590783,20.6439375 141.859908,20.7875475 143.375806,20.7875475 Z" id="Path"></path>
                                </g>
                                <g transform="translate(2.467742, 30.158100)" fill="#5A5B5D">
                                    <polygon id="Path" points="2.009447 6.17522999 2.009447 6.17522999 7.50898618 0.682147498 9.87096774 0.682147498 3.91313364 6.39064499 10.2235023 13.140315 7.75576037 13.140315 2.009447 6.71376748 1.97419355 6.71376748 1.97419355 13.140315 0.246774194 13.140315 0.246774194 0.682147498 1.97419355 0.682147498 1.97419355 6.17522999"></polygon>
                                    <path d="M17.7324885,13.4634375 C16.921659,13.4634375 16.2165899,13.3198275 15.6172811,13.0326075 C15.0179724,12.7453875 14.524424,12.3863625 14.1366359,11.91963 C13.7488479,11.4528975 13.4668203,10.9502625 13.2552995,10.33992 C13.0790323,9.72957748 12.9732719,9.11923498 12.9732719,8.50889248 L12.9732719,0.646244999 L14.7006912,0.646244999 L14.7006912,8.40118498 C14.7006912,8.83201498 14.7359447,9.22694248 14.8417051,9.65777248 C14.9474654,10.0886025 15.1237327,10.4476275 15.3352535,10.77075 C15.5820276,11.0938725 15.8993088,11.3810925 16.2518433,11.560605 C16.6396313,11.77602 17.1331797,11.847825 17.697235,11.847825 C18.2612903,11.847825 18.7548387,11.7401175 19.1426267,11.560605 C19.5304147,11.34519 19.8476959,11.0938725 20.09447,10.77075 C20.3412442,10.4476275 20.5175115,10.0886025 20.5880184,9.65777248 C20.6937788,9.22694248 20.7290323,8.83201498 20.7290323,8.40118498 L20.7290323,0.646244999 L22.4211982,0.646244999 L22.4211982,8.50889248 C22.4211982,9.15513748 22.3154378,9.76547998 22.1391705,10.33992 C21.9629032,10.9502625 21.6456221,11.4528975 21.2578341,11.91963 C20.8700461,12.3863625 20.3764977,12.7453875 19.7771889,13.0326075 C19.2483871,13.3198275 18.543318,13.4634375 17.7324885,13.4634375 Z" id="Path"></path>
                                    <polygon id="Path" points="36.0642857 10.6630425 36.0642857 10.6630425 36.0995392 0.718049998 37.8269585 0.718049998 37.8269585 13.1762175 35.6764977 13.1762175 29.2251152 3.01580999 29.1898618 3.01580999 29.1898618 13.1762175 27.4624424 13.1762175 27.4624424 0.718049998 29.6834101 0.718049998"></polygon>
                                    <path d="M47.6626728,3.01580999 C47.4158986,2.69268749 47.0986175,2.40546749 46.675576,2.19005249 C46.2525346,1.9746375 45.7942396,1.86693 45.2654378,1.86693 C44.9834101,1.86693 44.7013825,1.9028325 44.4193548,1.9746375 C44.1373272,2.0464425 43.890553,2.19005249 43.6437788,2.33366249 C43.3970046,2.51317499 43.2207373,2.72858999 43.0797235,2.97990749 C42.9387097,3.23122499 42.8682028,3.51844499 42.8682028,3.87746999 C42.8682028,4.20059249 42.9387097,4.48781249 43.0797235,4.73912999 C43.2207373,4.95454499 43.3970046,5.16995999 43.6085253,5.31356999 C43.8200461,5.45717999 44.1020737,5.60078999 44.4193548,5.70849749 C44.7366359,5.81620499 45.0539171,5.92391249 45.4064516,6.06752249 C45.8294931,6.21113249 46.2525346,6.35474249 46.675576,6.49835248 C47.0986175,6.67786498 47.4864055,6.89327998 47.8389401,7.14459748 C48.1914747,7.43181748 48.4735023,7.75493998 48.685023,8.14986748 C48.8965438,8.54479498 49.0023041,9.08333248 49.0023041,9.69367498 C49.0023041,10.33992 48.8965438,10.91436 48.6497696,11.3810925 C48.4029954,11.847825 48.0857143,12.2427525 47.6979263,12.565875 C47.3101382,12.8889975 46.8518433,13.1044125 46.3582949,13.2480225 C45.8294931,13.3916325 45.3006912,13.4634375 44.7718894,13.4634375 C43.9963134,13.4634375 43.2559908,13.3198275 42.5156682,12.996705 C41.8105991,12.709485 41.2112903,12.2427525 40.7177419,11.63241 L42.0573733,10.48353 C42.3394009,10.91436 42.7271889,11.273385 43.2207373,11.5247025 C43.7142857,11.8119225 44.2430876,11.91963 44.8071429,11.91963 C45.0891705,11.91963 45.3711982,11.8837275 45.6532258,11.8119225 C45.9352535,11.7401175 46.2172811,11.5965075 46.4288018,11.416995 C46.675576,11.2374825 46.8518433,11.0220675 46.9928571,10.77075 C47.133871,10.5194325 47.2043779,10.19631 47.2043779,9.80138248 C47.2043779,9.44235748 47.133871,9.11923498 46.9576037,8.86791748 C46.8165899,8.61659998 46.6050691,8.40118498 46.3230415,8.22167248 C46.0410138,8.04215998 45.7589862,7.89854998 45.4064516,7.75493998 C45.0539171,7.64723248 44.666129,7.50362248 44.278341,7.36001248 C43.890553,7.25230498 43.502765,7.10869498 43.114977,6.92918248 C42.7271889,6.74966998 42.4099078,6.53425498 42.0926267,6.28293749 C41.7753456,6.03161999 41.5638249,5.70849749 41.3523041,5.31356999 C41.1760369,4.91864249 41.0702765,4.45190999 41.0702765,3.87746999 C41.0702765,3.26712749 41.2112903,2.72858999 41.4580645,2.26185749 C41.7048387,1.8310275 42.0221198,1.4361 42.4099078,1.14888 C42.7976959,0.861659998 43.2559908,0.646244999 43.7495392,0.502634999 C44.2430876,0.359024999 44.7366359,0.287219999 45.2654378,0.287219999 C45.9705069,0.287219999 46.6403226,0.430829999 47.2748848,0.682147498 C47.909447,0.933464998 48.4029954,1.29249 48.7907834,1.72332 L47.6626728,3.01580999 Z" id="Path"></path>
                                    <polygon id="Path" points="57.4278802 13.140315 55.7004608 13.140315 55.7004608 2.22595499 51.7873272 2.22595499 51.7873272 0.682147498 61.3410138 0.682147498 61.3410138 2.22595499 57.4278802 2.22595499"></polygon>
                                    <path d="M70.6479263,3.01580999 C70.4011521,2.69268749 70.083871,2.40546749 69.6608295,2.19005249 C69.237788,1.9746375 68.7794931,1.86693 68.2506912,1.86693 C67.9686636,1.86693 67.6866359,1.9028325 67.4046083,1.9746375 C67.1225806,2.0464425 66.8758065,2.19005249 66.6290323,2.33366249 C66.3822581,2.51317499 66.2059908,2.72858999 66.064977,2.97990749 C65.9239631,3.23122499 65.8534562,3.51844499 65.8534562,3.87746999 C65.8534562,4.20059249 65.9239631,4.48781249 66.064977,4.73912999 C66.2059908,4.95454499 66.3822581,5.16995999 66.5937788,5.31356999 C66.8052995,5.45717999 67.0873272,5.60078999 67.4046083,5.70849749 C67.7218894,5.81620499 68.0391705,5.92391249 68.3917051,6.06752249 C68.8147465,6.21113249 69.237788,6.35474249 69.6608295,6.49835248 C70.083871,6.67786498 70.471659,6.89327998 70.8241935,7.14459748 C71.1767281,7.43181748 71.4587558,7.75493998 71.6702765,8.14986748 C71.8817972,8.54479498 71.9875576,9.08333248 71.9875576,9.69367498 C71.9875576,10.33992 71.8817972,10.91436 71.635023,11.3810925 C71.3882488,11.847825 71.0709677,12.2427525 70.6831797,12.565875 C70.2953917,12.8889975 69.8370968,13.1044125 69.3435484,13.2480225 C68.8147465,13.3916325 68.2859447,13.4634375 67.7571429,13.4634375 C66.9815668,13.4634375 66.2412442,13.3198275 65.5009217,12.996705 C64.7958525,12.709485 64.1965438,12.2427525 63.7029954,11.63241 L65.0426267,10.48353 C65.3246544,10.91436 65.7124424,11.273385 66.2059908,11.5247025 C66.6995392,11.8119225 67.228341,11.91963 67.7923963,11.91963 C68.074424,11.91963 68.3564516,11.8837275 68.6384793,11.8119225 C68.9205069,11.7401175 69.2025346,11.5965075 69.4140553,11.416995 C69.6608295,11.2374825 69.8370968,11.0220675 69.9781106,10.77075 C70.1191244,10.5194325 70.1896313,10.19631 70.1896313,9.80138248 C70.1896313,9.44235748 70.1191244,9.11923498 69.9428571,8.86791748 C69.8018433,8.61659998 69.5903226,8.40118498 69.3082949,8.22167248 C69.0262673,8.04215998 68.7442396,7.89854998 68.3917051,7.75493998 C68.0391705,7.64723248 67.6513825,7.50362248 67.2635945,7.36001248 C66.8758065,7.25230498 66.4880184,7.10869498 66.1002304,6.92918248 C65.7124424,6.74966998 65.3951613,6.53425498 65.0778802,6.28293749 C64.7605991,6.03161999 64.5490783,5.70849749 64.3375576,5.31356999 C64.1612903,4.91864249 64.05553,4.45190999 64.05553,3.87746999 C64.05553,3.26712749 64.1965438,2.72858999 64.443318,2.26185749 C64.6900922,1.8310275 65.0073733,1.4361 65.3951613,1.14888 C65.7829493,0.861659998 66.2412442,0.646244999 66.7347926,0.502634999 C67.228341,0.359024999 67.7571429,0.287219999 68.2506912,0.287219999 C68.9557604,0.287219999 69.625576,0.430829999 70.2601382,0.682147498 C70.8947005,0.933464998 71.3882488,1.29249 71.7760369,1.72332 L70.6479263,3.01580999 Z" id="Path"></path>
                                    <polygon id="Path" points="80.2721198 13.140315 78.5447005 13.140315 78.5447005 2.22595499 74.6315668 2.22595499 74.6315668 0.682147498 84.1852535 0.682147498 84.1852535 2.22595499 80.2721198 2.22595499"></polygon>
                                    <path d="M98.6391705,6.89327998 C98.6391705,7.86264748 98.4629032,8.72430748 98.1456221,9.55006498 C97.828341,10.33992 97.3700461,11.05797 96.7707373,11.63241 C96.206682,12.20685 95.5016129,12.6735825 94.7260369,12.996705 C93.9152074,13.3198275 93.0691244,13.49934 92.1172811,13.49934 C91.2006912,13.49934 90.3193548,13.3198275 89.5437788,12.996705 C88.7682028,12.6735825 88.0631336,12.20685 87.4990783,11.63241 C86.935023,11.05797 86.4767281,10.3758225 86.159447,9.55006498 C85.8421659,8.76020998 85.6658986,7.86264748 85.6658986,6.89327998 C85.6658986,5.92391249 85.8421659,5.02634999 86.159447,4.23649499 C86.4767281,3.44663999 86.935023,2.76449249 87.4990783,2.19005249 C88.0631336,1.6156125 88.7682028,1.1847825 89.5437788,0.861659998 C90.3193548,0.538537499 91.2006912,0.394927499 92.1172811,0.394927499 C93.033871,0.394927499 93.9152074,0.538537499 94.7260369,0.861659998 C95.5368664,1.1847825 96.206682,1.6156125 96.7707373,2.19005249 C97.3347926,2.76449249 97.7930876,3.44663999 98.1456221,4.23649499 C98.4629032,5.02634999 98.6391705,5.92391249 98.6391705,6.89327998 Z M96.7707373,6.89327998 C96.7707373,6.21113249 96.664977,5.56488749 96.4534562,4.95454499 C96.2419355,4.34420249 95.9246544,3.80566499 95.5368664,3.37483499 C95.1490783,2.90810249 94.65553,2.54907749 94.0914747,2.29775999 C93.5274194,2.0464425 92.8928571,1.9028325 92.1525346,1.9028325 C91.4474654,1.9028325 90.8129032,2.0464425 90.2488479,2.29775999 C89.6847926,2.54907749 89.1912442,2.90810249 88.8034562,3.37483499 C88.4156682,3.84156749 88.0983871,4.38010499 87.8868664,4.95454499 C87.6753456,5.56488749 87.5695853,6.21113249 87.5695853,6.89327998 C87.5695853,7.57542748 87.6753456,8.22167248 87.8868664,8.83201498 C88.0983871,9.44235748 88.4156682,9.98089498 88.8034562,10.411725 C89.1912442,10.8784575 89.6847926,11.20158 90.2488479,11.4888 C90.8129032,11.7401175 91.4474654,11.8837275 92.1525346,11.8837275 C92.8576037,11.8837275 93.4921659,11.7401175 94.0562212,11.4888 C94.6202765,11.2374825 95.1138249,10.8784575 95.5368664,10.411725 C95.9246544,9.94499248 96.2419355,9.44235748 96.4534562,8.83201498 C96.664977,8.25757498 96.7707373,7.61132998 96.7707373,6.89327998 Z" id="Shape"></path>
                                    <polygon id="Path" points="103.363134 13.140315 101.635714 13.140315 101.635714 0.682147498 109.285714 0.682147498 109.285714 2.22595499 103.363134 2.22595499 103.363134 6.10342499 108.93318 6.10342499 108.93318 7.61132998 103.398387 7.61132998 103.398387 13.140315"></polygon>
                                    <polygon id="Path" points="115.243548 13.140315 113.516129 13.140315 113.516129 0.682147498 121.166129 0.682147498 121.166129 2.22595499 115.243548 2.22595499 115.243548 6.10342499 120.778341 6.10342499 120.778341 7.61132998 115.243548 7.61132998 115.243548 13.140315"></polygon>
                                    <polygon id="Path" points="126.454147 11.5965075 132.835023 11.5965075 132.835023 13.140315 124.726728 13.140315 124.726728 0.682147498 132.588249 0.682147498 132.588249 2.22595499 126.454147 2.22595499 126.454147 5.95981499 132.235714 5.95981499 132.235714 7.46771998 126.454147 7.46771998"></polygon>
                                    <polygon id="Path" points="145.491014 10.6630425 145.491014 10.6630425 145.526267 0.718049998 147.253687 0.718049998 147.253687 13.1762175 145.103226 13.1762175 138.651843 3.01580999 138.61659 3.01580999 138.61659 13.1762175 136.889171 13.1762175 136.889171 0.718049998 139.110138 0.718049998"></polygon>
                                </g>
                            </g>
                            <g id="Group" fill-rule="nonzero">
                                <path d="M50.185119,32.2674419 C47.2702381,32.8255814 44.1446429,31.7093023 42.810119,31.4651163 C41.5107143,31.255814 40.9488095,31.6395349 40.6678571,32.1976744 C40.1410714,33.1744186 40.5625,34.3255814 40.2464286,36.4883721 C40.1761905,36.8372093 40.1059524,37.1860465 40.0357143,37.5348837 C39.7547619,37.9534884 39.4386905,38.3372093 39.122619,38.7209302 C38.8416667,39.0697674 38.5255952,39.4186047 38.2095238,39.6976744 C35.4,42.4186047 31.5720238,44.0581395 27.3577381,44.0581395 C18.7535714,44.0581395 11.8,37.1162791 11.8,28.6046512 C11.8,20.372093 18.2970238,13.6395349 26.4446429,13.1511628 C23.2839286,12.1744186 19.8071429,11.9302326 16.3303571,12.6976744 C15.6982143,12.8372093 15.0660714,13.0116279 14.4690476,13.1860465 C14.3636905,13.2209302 14.2934524,13.255814 14.1880952,13.2906977 C4.98690476,16.3604651 -0.7375,25.6395349 0.807738095,35.2325581 C0.842857143,35.3372093 0.87797619,35.6162791 1.01845238,36.244186 C1.12380952,36.6627907 1.33452381,37.5697674 1.36964286,37.6046512 C1.475,37.9883721 1.75595238,38.8604651 1.75595238,38.9302326 C1.86130952,39.3139535 2.17738095,40.1511628 2.2125,40.2209302 C2.35297619,40.6046512 2.66904762,41.372093 2.66904762,41.4069767 C2.80952381,41.755814 3.16071429,42.5232558 3.19583333,42.5581395 C3.37142857,42.9069767 3.79285714,43.7093023 3.79285714,43.7790698 C3.96845238,44.127907 4.425,44.8953488 4.46011905,44.9302326 C4.63571429,45.244186 5.12738095,45.9767442 5.12738095,46.0465116 C5.33809524,46.3604651 5.79464286,47.0232558 5.79464286,47.0581395 C6.00535714,47.372093 6.53214286,48.0697674 6.5672619,48.1046512 C6.81309524,48.4186047 7.375,49.0813953 7.41011905,49.1162791 C7.65595238,49.3953488 8.21785714,50.0581395 8.28809524,50.0930233 C8.53392857,50.372093 9.13095238,50.9651163 9.16607143,51 C9.44702381,51.2790698 10.0440476,51.8023256 10.0440476,51.8372093 C10.325,52.0813953 10.9922619,52.6744186 11.027381,52.7093023 C11.3083333,52.9534884 12.0107143,53.4767442 12.0458333,53.5116279 C12.3267857,53.7209302 13.0291667,54.244186 13.0642857,54.2790698 C13.3803571,54.4883721 14.047619,54.9418605 14.0827381,54.9418605 C14.3988095,55.1511628 15.1363095,55.5697674 15.1714286,55.6046512 C15.4875,55.7790698 16.260119,56.1976744 16.3303571,56.2325581 C16.6464286,56.4069767 17.4541667,56.7906977 17.4892857,56.8255814 C17.8404762,57 18.6130952,57.3139535 18.6482143,57.3488372 C18.9994048,57.4883721 19.7369048,57.8023256 19.7720238,57.8023256 C20.1232143,57.9418605 20.9660714,58.2209302 21.0363095,58.2209302 C21.3875,58.3255814 22.2303571,58.5697674 22.3005952,58.6046512 C22.6517857,58.7093023 23.4946429,58.9186047 23.564881,58.9186047 C23.9511905,58.9883721 24.7589286,59.1627907 24.7940476,59.1627907 C25.1803571,59.2325581 26.0232143,59.372093 26.0583333,59.372093 C26.4446429,59.4418605 27.322619,59.5116279 27.3928571,59.5465116 C27.7791667,59.5813953 28.6571429,59.6511628 28.727381,59.6511628 C29.1136905,59.6860465 29.9916667,59.6860465 30.0267857,59.6860465 C30.4482143,59.6860465 30.8345238,59.6860465 31.2559524,59.6860465 C31.2559524,59.6860465 32.5904762,59.6162791 33.2577381,59.5465116 C33.8547619,59.4767442 34.4869048,59.4069767 35.0839286,59.3023256 C35.0839286,59.3023256 35.0839286,59.3023256 35.0839286,59.3023256 C35.5404762,59.2325581 36.0321429,59.127907 36.4886905,59.0232558 C44.285119,57.3488372 50.3607143,52.9534884 54.610119,46.744186 C57.7357143,42.1744186 59.6672619,33.4534884 58.4029762,29.7209302 C58.0869048,28.8139535 56.6470238,28.1511628 55.7339286,29.0930233 C54.8559524,30.0697674 53.135119,31.7093023 50.185119,32.2674419 Z" id="Path" fill="url(#linearGradient-1)"></path>
                                <path d="M54.9261905,14.9651163 C54.4345238,12.1395349 52.1517857,8.96511628 48.710119,6.38372093 C46.9190476,5.05813953 44.1797619,3.55813953 41.0541667,2.40697674 C39.789881,1.91860465 38.5255952,1.53488372 37.1910714,1.18604651 C35.364881,0.73255814 33.5386905,0.453488372 31.747619,0.38372093 L31.747619,0.38372093 C29.1839286,0.244186047 26.514881,0.453488372 23.8809524,1.01162791 C8.14761905,4.39534884 -2.00178571,19.5697674 0.807738095,35.2325581 C-0.772619048,25.6395349 4.95178571,16.3604651 14.1529762,13.2906977 C14.2232143,13.255814 14.3285714,13.2209302 14.4339286,13.1860465 C15.0309524,12.9767442 15.6630952,12.8372093 16.2952381,12.6976744 C22.160119,11.4418605 27.9547619,12.872093 32.414881,16.1860465 C33.960119,17.4418605 34.9083333,18.1046512 37.0857143,20.3372093 C39.2630952,22.5697674 43.8636905,26.7209302 50.185119,23.5813953 C53.9779762,21.7325581 55.4529762,17.755814 54.9261905,14.9651163 Z" id="Path" fill="url(#linearGradient-2)"></path>
                                <g transform="translate(0.702381, 12.209302)" id="Path">
                                    <path d="M6.18095238,22.0116279 C8.49880952,32.7209302 18.2267857,39.9418605 27.3928571,38.3372093 C28.5166667,38.127907 29.5702381,37.8139535 30.5535714,37.3255814 C34.0654762,35.2674419 36.6994048,33.1046512 38.5958333,27.872093 C38.8767857,27.1046512 39.0875,26.4069767 39.2279762,25.7790698 C39.2630952,25.7093023 39.2982143,25.4302326 39.3333333,25.3953488 C39.3333333,25.3953488 39.3333333,25.3604651 39.3333333,25.3604651 C39.052381,25.7790698 38.7363095,26.1627907 38.4202381,26.5465116 C38.1392857,26.8953488 37.8232143,27.244186 37.5071429,27.5232558 C34.697619,30.244186 30.8696429,31.8837209 26.6553571,31.8837209 C18.0511905,31.8837209 11.097619,24.9418605 11.097619,16.4302326 C11.097619,8.19767442 17.5946429,1.46511628 25.7422619,0.976744186 C22.5815476,-1.13936638e-14 19.1047619,-0.244186047 15.6279762,0.523255814 C16.0142857,0.453488372 16.4357143,0.38372093 16.8220238,0.313953488 C8.14761905,2.96511628 4.03869048,12.2093023 6.18095238,22.0116279 Z" fill="url(#linearGradient-3)"></path>
                                    <path d="M0.105357143,23.0232558 C0.105357143,23.127907 0.14047619,23.3023256 0.316071429,24.0348837 C0.175595238,23.372093 0.175595238,23.3023256 0.105357143,23.0232558 Z" fill="url(#linearGradient-4)"></path>
                                    <path d="M0.316071429,24.0697674 C0.421428571,24.4883721 0.491666667,24.872093 0.59702381,25.2906977 C0.491666667,24.872093 0.421428571,24.4883721 0.316071429,24.0697674 Z" fill="url(#linearGradient-5)"></path>
                                </g>
                            </g>
                        </g>
                    </g>
                </g>
            </g>
        </g>
    </g>
</svg>